<mxfile host="app.diagrams.net" modified="2023-09-25T19:27:19.116Z" agent="Mozilla/5.0 (Windows NT 10.0; Win64; x64) AppleWebKit/537.36 (KHTML, like Gecko) Chrome/117.0.0.0 Safari/537.36" version="21.8.2" etag="fpR1yGsHcTXy-XaISSYh" type="device">
  <diagram id="dVGKa4f7RRTimBPFVb9L" name="Page-1">
    <mxGraphModel dx="2910" dy="2214" grid="1" gridSize="10" guides="1" tooltips="1" connect="1" arrows="1" fold="1" page="1" pageScale="1" pageWidth="850" pageHeight="1100" math="0" shadow="0">
      <root>
        <mxCell id="0" />
        <mxCell id="1" parent="0" />
        <mxCell id="SQC-Pw_386uw05JgiqiM-1" value="" style="rounded=0;whiteSpace=wrap;html=1;" vertex="1" parent="1">
          <mxGeometry x="140" y="340" width="540" height="330" as="geometry" />
        </mxCell>
        <mxCell id="SQC-Pw_386uw05JgiqiM-2" value="" style="rounded=0;whiteSpace=wrap;html=1;" vertex="1" parent="1">
          <mxGeometry x="220" y="340" width="460" height="40" as="geometry" />
        </mxCell>
        <mxCell id="SQC-Pw_386uw05JgiqiM-3" value="" style="rounded=0;whiteSpace=wrap;html=1;" vertex="1" parent="1">
          <mxGeometry x="330" y="630" width="350" height="40" as="geometry" />
        </mxCell>
        <mxCell id="SQC-Pw_386uw05JgiqiM-4" value="" style="rounded=0;whiteSpace=wrap;html=1;" vertex="1" parent="1">
          <mxGeometry x="140" y="580" width="90" height="60" as="geometry" />
        </mxCell>
        <mxCell id="SQC-Pw_386uw05JgiqiM-8" value="GND" style="rounded=0;whiteSpace=wrap;html=1;" vertex="1" parent="1">
          <mxGeometry x="220" y="340" width="40" height="40" as="geometry" />
        </mxCell>
        <mxCell id="SQC-Pw_386uw05JgiqiM-9" value="13" style="rounded=0;whiteSpace=wrap;html=1;" vertex="1" parent="1">
          <mxGeometry x="260" y="340" width="30" height="40" as="geometry" />
        </mxCell>
        <mxCell id="SQC-Pw_386uw05JgiqiM-10" value="12" style="rounded=0;whiteSpace=wrap;html=1;" vertex="1" parent="1">
          <mxGeometry x="290" y="340" width="30" height="40" as="geometry" />
        </mxCell>
        <mxCell id="SQC-Pw_386uw05JgiqiM-11" value="11" style="rounded=0;whiteSpace=wrap;html=1;" vertex="1" parent="1">
          <mxGeometry x="320" y="340" width="30" height="40" as="geometry" />
        </mxCell>
        <mxCell id="SQC-Pw_386uw05JgiqiM-12" value="10" style="rounded=0;whiteSpace=wrap;html=1;" vertex="1" parent="1">
          <mxGeometry x="350" y="340" width="30" height="40" as="geometry" />
        </mxCell>
        <mxCell id="SQC-Pw_386uw05JgiqiM-13" value="9" style="rounded=0;whiteSpace=wrap;html=1;" vertex="1" parent="1">
          <mxGeometry x="380" y="340" width="30" height="40" as="geometry" />
        </mxCell>
        <mxCell id="SQC-Pw_386uw05JgiqiM-14" value="2" style="rounded=0;whiteSpace=wrap;html=1;" vertex="1" parent="1">
          <mxGeometry x="590" y="340" width="30" height="40" as="geometry" />
        </mxCell>
        <mxCell id="SQC-Pw_386uw05JgiqiM-15" value="3" style="rounded=0;whiteSpace=wrap;html=1;" vertex="1" parent="1">
          <mxGeometry x="560" y="340" width="30" height="40" as="geometry" />
        </mxCell>
        <mxCell id="SQC-Pw_386uw05JgiqiM-16" value="4" style="rounded=0;whiteSpace=wrap;html=1;" vertex="1" parent="1">
          <mxGeometry x="530" y="340" width="30" height="40" as="geometry" />
        </mxCell>
        <mxCell id="SQC-Pw_386uw05JgiqiM-17" value="5" style="rounded=0;whiteSpace=wrap;html=1;" vertex="1" parent="1">
          <mxGeometry x="500" y="340" width="30" height="40" as="geometry" />
        </mxCell>
        <mxCell id="SQC-Pw_386uw05JgiqiM-18" value="6" style="rounded=0;whiteSpace=wrap;html=1;" vertex="1" parent="1">
          <mxGeometry x="470" y="340" width="30" height="40" as="geometry" />
        </mxCell>
        <mxCell id="SQC-Pw_386uw05JgiqiM-19" value="7" style="rounded=0;whiteSpace=wrap;html=1;" vertex="1" parent="1">
          <mxGeometry x="440" y="340" width="30" height="40" as="geometry" />
        </mxCell>
        <mxCell id="SQC-Pw_386uw05JgiqiM-20" value="8" style="rounded=0;whiteSpace=wrap;html=1;" vertex="1" parent="1">
          <mxGeometry x="410" y="340" width="30" height="40" as="geometry" />
        </mxCell>
        <mxCell id="SQC-Pw_386uw05JgiqiM-21" value="1" style="rounded=0;whiteSpace=wrap;html=1;" vertex="1" parent="1">
          <mxGeometry x="620" y="340" width="30" height="40" as="geometry" />
        </mxCell>
        <mxCell id="SQC-Pw_386uw05JgiqiM-22" value="0" style="rounded=0;whiteSpace=wrap;html=1;" vertex="1" parent="1">
          <mxGeometry x="650" y="340" width="30" height="40" as="geometry" />
        </mxCell>
        <mxCell id="SQC-Pw_386uw05JgiqiM-24" value="A5" style="rounded=0;whiteSpace=wrap;html=1;" vertex="1" parent="1">
          <mxGeometry x="660" y="630" width="20" height="40" as="geometry" />
        </mxCell>
        <mxCell id="SQC-Pw_386uw05JgiqiM-25" value="A0" style="rounded=0;whiteSpace=wrap;html=1;" vertex="1" parent="1">
          <mxGeometry x="560" y="630" width="20" height="40" as="geometry" />
        </mxCell>
        <mxCell id="SQC-Pw_386uw05JgiqiM-26" value="A1" style="rounded=0;whiteSpace=wrap;html=1;" vertex="1" parent="1">
          <mxGeometry x="580" y="630" width="20" height="40" as="geometry" />
        </mxCell>
        <mxCell id="SQC-Pw_386uw05JgiqiM-27" value="A2" style="rounded=0;whiteSpace=wrap;html=1;" vertex="1" parent="1">
          <mxGeometry x="600" y="630" width="20" height="40" as="geometry" />
        </mxCell>
        <mxCell id="SQC-Pw_386uw05JgiqiM-28" value="A3" style="rounded=0;whiteSpace=wrap;html=1;" vertex="1" parent="1">
          <mxGeometry x="620" y="630" width="20" height="40" as="geometry" />
        </mxCell>
        <mxCell id="SQC-Pw_386uw05JgiqiM-29" value="A4" style="rounded=0;whiteSpace=wrap;html=1;" vertex="1" parent="1">
          <mxGeometry x="640" y="630" width="20" height="40" as="geometry" />
        </mxCell>
        <mxCell id="SQC-Pw_386uw05JgiqiM-30" value="VIN" style="rounded=0;whiteSpace=wrap;html=1;" vertex="1" parent="1">
          <mxGeometry x="510" y="630" width="30" height="40" as="geometry" />
        </mxCell>
        <mxCell id="SQC-Pw_386uw05JgiqiM-31" value="GND" style="rounded=0;whiteSpace=wrap;html=1;" vertex="1" parent="1">
          <mxGeometry x="480" y="630" width="30" height="40" as="geometry" />
        </mxCell>
        <mxCell id="SQC-Pw_386uw05JgiqiM-32" value="5V" style="rounded=0;whiteSpace=wrap;html=1;" vertex="1" parent="1">
          <mxGeometry x="450" y="630" width="30" height="40" as="geometry" />
        </mxCell>
        <mxCell id="SQC-Pw_386uw05JgiqiM-33" value="3.3V" style="rounded=0;whiteSpace=wrap;html=1;" vertex="1" parent="1">
          <mxGeometry x="420" y="630" width="30" height="40" as="geometry" />
        </mxCell>
        <mxCell id="SQC-Pw_386uw05JgiqiM-34" value="RST" style="rounded=0;whiteSpace=wrap;html=1;" vertex="1" parent="1">
          <mxGeometry x="390" y="630" width="30" height="40" as="geometry" />
        </mxCell>
        <mxCell id="SQC-Pw_386uw05JgiqiM-35" value="IO" style="rounded=0;whiteSpace=wrap;html=1;" vertex="1" parent="1">
          <mxGeometry x="360" y="630" width="30" height="40" as="geometry" />
        </mxCell>
        <mxCell id="SQC-Pw_386uw05JgiqiM-38" value="" style="rounded=0;whiteSpace=wrap;html=1;" vertex="1" parent="1">
          <mxGeometry x="820" y="470" width="100" height="80" as="geometry" />
        </mxCell>
        <mxCell id="SQC-Pw_386uw05JgiqiM-37" value="" style="ellipse;whiteSpace=wrap;html=1;fillColor=#000000;" vertex="1" parent="1">
          <mxGeometry x="815" y="390" width="110" height="110" as="geometry" />
        </mxCell>
        <mxCell id="SQC-Pw_386uw05JgiqiM-61" style="edgeStyle=orthogonalEdgeStyle;rounded=0;orthogonalLoop=1;jettySize=auto;html=1;exitX=0.5;exitY=1;exitDx=0;exitDy=0;entryX=0.5;entryY=0;entryDx=0;entryDy=0;endArrow=classic;endFill=1;strokeColor=#FF0000;strokeWidth=2;" edge="1" parent="1" source="SQC-Pw_386uw05JgiqiM-39" target="SQC-Pw_386uw05JgiqiM-14">
          <mxGeometry relative="1" as="geometry">
            <mxPoint x="690" y="240" as="targetPoint" />
            <Array as="points">
              <mxPoint x="185" y="80" />
              <mxPoint x="160" y="80" />
              <mxPoint x="160" y="-90" />
              <mxPoint x="605" y="-90" />
            </Array>
          </mxGeometry>
        </mxCell>
        <mxCell id="SQC-Pw_386uw05JgiqiM-39" value="" style="rounded=0;whiteSpace=wrap;html=1;" vertex="1" parent="1">
          <mxGeometry x="180" width="10" height="60" as="geometry" />
        </mxCell>
        <mxCell id="SQC-Pw_386uw05JgiqiM-58" style="edgeStyle=orthogonalEdgeStyle;rounded=0;orthogonalLoop=1;jettySize=auto;html=1;exitX=0;exitY=0.5;exitDx=0;exitDy=0;entryX=0.5;entryY=0;entryDx=0;entryDy=0;endArrow=classic;endFill=1;strokeWidth=2;" edge="1" parent="1" source="SQC-Pw_386uw05JgiqiM-42" target="SQC-Pw_386uw05JgiqiM-8">
          <mxGeometry relative="1" as="geometry">
            <Array as="points">
              <mxPoint x="205" y="220" />
              <mxPoint x="240" y="220" />
            </Array>
          </mxGeometry>
        </mxCell>
        <mxCell id="SQC-Pw_386uw05JgiqiM-42" value="330 ohms" style="rounded=1;whiteSpace=wrap;html=1;rotation=-90;" vertex="1" parent="1">
          <mxGeometry x="170" y="140" width="70" height="30" as="geometry" />
        </mxCell>
        <mxCell id="SQC-Pw_386uw05JgiqiM-59" style="edgeStyle=orthogonalEdgeStyle;rounded=0;orthogonalLoop=1;jettySize=auto;html=1;exitX=0;exitY=0.5;exitDx=0;exitDy=0;endArrow=classic;endFill=1;strokeWidth=2;" edge="1" parent="1" source="SQC-Pw_386uw05JgiqiM-45">
          <mxGeometry relative="1" as="geometry">
            <mxPoint x="240.00000000000023" y="340" as="targetPoint" />
            <Array as="points">
              <mxPoint x="340" y="220" />
              <mxPoint x="240" y="220" />
            </Array>
          </mxGeometry>
        </mxCell>
        <mxCell id="SQC-Pw_386uw05JgiqiM-45" value="330 ohms" style="rounded=1;whiteSpace=wrap;html=1;rotation=-90;" vertex="1" parent="1">
          <mxGeometry x="305" y="140" width="70" height="30" as="geometry" />
        </mxCell>
        <mxCell id="SQC-Pw_386uw05JgiqiM-57" style="edgeStyle=orthogonalEdgeStyle;rounded=0;orthogonalLoop=1;jettySize=auto;html=1;exitX=0.5;exitY=1;exitDx=0;exitDy=0;entryX=1;entryY=0.5;entryDx=0;entryDy=0;endArrow=none;endFill=0;strokeWidth=2;" edge="1" parent="1" source="SQC-Pw_386uw05JgiqiM-46" target="SQC-Pw_386uw05JgiqiM-42">
          <mxGeometry relative="1" as="geometry" />
        </mxCell>
        <mxCell id="SQC-Pw_386uw05JgiqiM-46" value="" style="rounded=0;whiteSpace=wrap;html=1;" vertex="1" parent="1">
          <mxGeometry x="200" width="10" height="60" as="geometry" />
        </mxCell>
        <mxCell id="SQC-Pw_386uw05JgiqiM-62" style="edgeStyle=orthogonalEdgeStyle;rounded=0;orthogonalLoop=1;jettySize=auto;html=1;exitX=0.5;exitY=1;exitDx=0;exitDy=0;entryX=0.5;entryY=0;entryDx=0;entryDy=0;strokeColor=#009900;strokeWidth=2;" edge="1" parent="1" source="SQC-Pw_386uw05JgiqiM-47" target="SQC-Pw_386uw05JgiqiM-15">
          <mxGeometry relative="1" as="geometry">
            <Array as="points">
              <mxPoint x="235" y="90" />
              <mxPoint x="280" y="90" />
              <mxPoint x="280" y="-80" />
              <mxPoint x="575" y="-80" />
            </Array>
          </mxGeometry>
        </mxCell>
        <mxCell id="SQC-Pw_386uw05JgiqiM-47" value="" style="rounded=0;whiteSpace=wrap;html=1;" vertex="1" parent="1">
          <mxGeometry x="230" width="10" height="60" as="geometry" />
        </mxCell>
        <mxCell id="SQC-Pw_386uw05JgiqiM-63" style="edgeStyle=orthogonalEdgeStyle;rounded=0;orthogonalLoop=1;jettySize=auto;html=1;exitX=0.5;exitY=1;exitDx=0;exitDy=0;entryX=0.5;entryY=0;entryDx=0;entryDy=0;strokeColor=#0000FF;strokeWidth=2;" edge="1" parent="1" source="SQC-Pw_386uw05JgiqiM-48" target="SQC-Pw_386uw05JgiqiM-16">
          <mxGeometry relative="1" as="geometry">
            <Array as="points">
              <mxPoint x="255" y="80" />
              <mxPoint x="270" y="80" />
              <mxPoint x="270" y="-70" />
              <mxPoint x="545" y="-70" />
            </Array>
          </mxGeometry>
        </mxCell>
        <mxCell id="SQC-Pw_386uw05JgiqiM-48" value="" style="rounded=0;whiteSpace=wrap;html=1;" vertex="1" parent="1">
          <mxGeometry x="250" width="10" height="60" as="geometry" />
        </mxCell>
        <mxCell id="SQC-Pw_386uw05JgiqiM-5" value="LED1" style="rhombus;whiteSpace=wrap;html=1;" vertex="1" parent="1">
          <mxGeometry x="180" y="-60" width="80" height="80" as="geometry" />
        </mxCell>
        <mxCell id="SQC-Pw_386uw05JgiqiM-64" style="edgeStyle=orthogonalEdgeStyle;rounded=0;orthogonalLoop=1;jettySize=auto;html=1;exitX=0.5;exitY=1;exitDx=0;exitDy=0;entryX=0.5;entryY=0;entryDx=0;entryDy=0;strokeColor=#FF0000;strokeWidth=2;" edge="1" parent="1" source="SQC-Pw_386uw05JgiqiM-51" target="SQC-Pw_386uw05JgiqiM-17">
          <mxGeometry relative="1" as="geometry">
            <Array as="points">
              <mxPoint x="320" y="100" />
              <mxPoint x="515" y="100" />
            </Array>
          </mxGeometry>
        </mxCell>
        <mxCell id="SQC-Pw_386uw05JgiqiM-51" value="" style="rounded=0;whiteSpace=wrap;html=1;" vertex="1" parent="1">
          <mxGeometry x="315" width="10" height="60" as="geometry" />
        </mxCell>
        <mxCell id="SQC-Pw_386uw05JgiqiM-60" style="edgeStyle=orthogonalEdgeStyle;rounded=0;orthogonalLoop=1;jettySize=auto;html=1;exitX=0.5;exitY=1;exitDx=0;exitDy=0;entryX=1;entryY=0.5;entryDx=0;entryDy=0;endArrow=none;endFill=0;strokeWidth=2;" edge="1" parent="1" source="SQC-Pw_386uw05JgiqiM-52" target="SQC-Pw_386uw05JgiqiM-45">
          <mxGeometry relative="1" as="geometry" />
        </mxCell>
        <mxCell id="SQC-Pw_386uw05JgiqiM-52" value="" style="rounded=0;whiteSpace=wrap;html=1;" vertex="1" parent="1">
          <mxGeometry x="335" width="10" height="60" as="geometry" />
        </mxCell>
        <mxCell id="SQC-Pw_386uw05JgiqiM-65" style="edgeStyle=orthogonalEdgeStyle;rounded=0;orthogonalLoop=1;jettySize=auto;html=1;exitX=0.5;exitY=1;exitDx=0;exitDy=0;entryX=0.5;entryY=0;entryDx=0;entryDy=0;strokeColor=#009900;strokeWidth=2;" edge="1" parent="1" source="SQC-Pw_386uw05JgiqiM-53" target="SQC-Pw_386uw05JgiqiM-18">
          <mxGeometry relative="1" as="geometry">
            <Array as="points">
              <mxPoint x="370" y="130" />
              <mxPoint x="485" y="130" />
            </Array>
          </mxGeometry>
        </mxCell>
        <mxCell id="SQC-Pw_386uw05JgiqiM-53" value="" style="rounded=0;whiteSpace=wrap;html=1;" vertex="1" parent="1">
          <mxGeometry x="365" width="10" height="60" as="geometry" />
        </mxCell>
        <mxCell id="SQC-Pw_386uw05JgiqiM-66" style="edgeStyle=orthogonalEdgeStyle;rounded=0;orthogonalLoop=1;jettySize=auto;html=1;exitX=0.5;exitY=1;exitDx=0;exitDy=0;entryX=0.5;entryY=0;entryDx=0;entryDy=0;strokeColor=#0000FF;strokeWidth=2;" edge="1" parent="1" source="SQC-Pw_386uw05JgiqiM-54" target="SQC-Pw_386uw05JgiqiM-19">
          <mxGeometry relative="1" as="geometry">
            <Array as="points">
              <mxPoint x="390" y="160" />
              <mxPoint x="455" y="160" />
            </Array>
          </mxGeometry>
        </mxCell>
        <mxCell id="SQC-Pw_386uw05JgiqiM-54" value="" style="rounded=0;whiteSpace=wrap;html=1;" vertex="1" parent="1">
          <mxGeometry x="385" width="10" height="60" as="geometry" />
        </mxCell>
        <mxCell id="SQC-Pw_386uw05JgiqiM-55" value="LED2" style="rhombus;whiteSpace=wrap;html=1;" vertex="1" parent="1">
          <mxGeometry x="315" y="-60" width="80" height="80" as="geometry" />
        </mxCell>
        <mxCell id="SQC-Pw_386uw05JgiqiM-67" value="" style="rounded=0;whiteSpace=wrap;html=1;" vertex="1" parent="1">
          <mxGeometry x="-230" y="150" width="110" height="200" as="geometry" />
        </mxCell>
        <mxCell id="SQC-Pw_386uw05JgiqiM-77" style="edgeStyle=orthogonalEdgeStyle;rounded=0;orthogonalLoop=1;jettySize=auto;html=1;exitX=0;exitY=0.5;exitDx=0;exitDy=0;entryX=0.5;entryY=1;entryDx=0;entryDy=0;strokeWidth=2;" edge="1" parent="1" source="SQC-Pw_386uw05JgiqiM-68" target="SQC-Pw_386uw05JgiqiM-31">
          <mxGeometry relative="1" as="geometry">
            <Array as="points">
              <mxPoint x="-220" y="730" />
              <mxPoint x="495" y="730" />
            </Array>
          </mxGeometry>
        </mxCell>
        <mxCell id="SQC-Pw_386uw05JgiqiM-68" value="GND" style="rounded=0;whiteSpace=wrap;html=1;rotation=-90;" vertex="1" parent="1">
          <mxGeometry x="-240" y="320" width="40" height="20" as="geometry" />
        </mxCell>
        <mxCell id="SQC-Pw_386uw05JgiqiM-69" value="IRQ" style="rounded=0;whiteSpace=wrap;html=1;rotation=-90;" vertex="1" parent="1">
          <mxGeometry x="-180" y="280" width="40" height="20" as="geometry" />
        </mxCell>
        <mxCell id="SQC-Pw_386uw05JgiqiM-83" style="edgeStyle=orthogonalEdgeStyle;rounded=0;orthogonalLoop=1;jettySize=auto;html=1;exitX=1;exitY=0.5;exitDx=0;exitDy=0;entryX=0.5;entryY=0;entryDx=0;entryDy=0;strokeColor=#6600CC;strokeWidth=2;" edge="1" parent="1" source="SQC-Pw_386uw05JgiqiM-70" target="SQC-Pw_386uw05JgiqiM-11">
          <mxGeometry relative="1" as="geometry">
            <Array as="points">
              <mxPoint x="-180" y="240" />
              <mxPoint x="335" y="240" />
            </Array>
          </mxGeometry>
        </mxCell>
        <mxCell id="SQC-Pw_386uw05JgiqiM-70" value="MOSI" style="rounded=0;whiteSpace=wrap;html=1;rotation=-90;" vertex="1" parent="1">
          <mxGeometry x="-200" y="280" width="40" height="20" as="geometry" />
        </mxCell>
        <mxCell id="SQC-Pw_386uw05JgiqiM-82" style="edgeStyle=orthogonalEdgeStyle;rounded=0;orthogonalLoop=1;jettySize=auto;html=1;exitX=1;exitY=0.5;exitDx=0;exitDy=0;entryX=0.5;entryY=0;entryDx=0;entryDy=0;strokeColor=#00CCCC;strokeWidth=2;" edge="1" parent="1" source="SQC-Pw_386uw05JgiqiM-71" target="SQC-Pw_386uw05JgiqiM-12">
          <mxGeometry relative="1" as="geometry">
            <Array as="points">
              <mxPoint x="-200" y="260" />
              <mxPoint x="365" y="260" />
            </Array>
          </mxGeometry>
        </mxCell>
        <mxCell id="SQC-Pw_386uw05JgiqiM-71" value="CNS" style="rounded=0;whiteSpace=wrap;html=1;rotation=-90;" vertex="1" parent="1">
          <mxGeometry x="-220" y="280" width="40" height="20" as="geometry" />
        </mxCell>
        <mxCell id="SQC-Pw_386uw05JgiqiM-78" style="edgeStyle=orthogonalEdgeStyle;rounded=0;orthogonalLoop=1;jettySize=auto;html=1;exitX=1;exitY=0.5;exitDx=0;exitDy=0;entryX=0.5;entryY=1;entryDx=0;entryDy=0;strokeColor=#FF0000;strokeWidth=2;" edge="1" parent="1" source="SQC-Pw_386uw05JgiqiM-72" target="SQC-Pw_386uw05JgiqiM-33">
          <mxGeometry relative="1" as="geometry">
            <Array as="points">
              <mxPoint x="-220" y="220" />
              <mxPoint x="120" y="220" />
              <mxPoint x="120" y="690" />
              <mxPoint x="435" y="690" />
            </Array>
          </mxGeometry>
        </mxCell>
        <mxCell id="SQC-Pw_386uw05JgiqiM-72" value="VCC" style="rounded=0;whiteSpace=wrap;html=1;rotation=-90;" vertex="1" parent="1">
          <mxGeometry x="-240" y="280" width="40" height="20" as="geometry" />
        </mxCell>
        <mxCell id="SQC-Pw_386uw05JgiqiM-81" style="edgeStyle=orthogonalEdgeStyle;rounded=0;orthogonalLoop=1;jettySize=auto;html=1;exitX=0;exitY=0.5;exitDx=0;exitDy=0;entryX=0.5;entryY=0;entryDx=0;entryDy=0;strokeColor=#CC6600;strokeWidth=2;" edge="1" parent="1" source="SQC-Pw_386uw05JgiqiM-73" target="SQC-Pw_386uw05JgiqiM-10">
          <mxGeometry relative="1" as="geometry">
            <Array as="points">
              <mxPoint x="-160" y="370" />
              <mxPoint x="50" y="370" />
              <mxPoint x="50" y="320" />
              <mxPoint x="305" y="320" />
            </Array>
          </mxGeometry>
        </mxCell>
        <mxCell id="SQC-Pw_386uw05JgiqiM-73" value="MISO" style="rounded=0;whiteSpace=wrap;html=1;rotation=-90;" vertex="1" parent="1">
          <mxGeometry x="-180" y="320" width="40" height="20" as="geometry" />
        </mxCell>
        <mxCell id="SQC-Pw_386uw05JgiqiM-80" style="edgeStyle=orthogonalEdgeStyle;rounded=0;orthogonalLoop=1;jettySize=auto;html=1;exitX=0;exitY=0.5;exitDx=0;exitDy=0;entryX=0.5;entryY=0;entryDx=0;entryDy=0;strokeColor=#999900;strokeWidth=2;" edge="1" parent="1" source="SQC-Pw_386uw05JgiqiM-74" target="SQC-Pw_386uw05JgiqiM-9">
          <mxGeometry relative="1" as="geometry">
            <Array as="points">
              <mxPoint x="-180" y="390" />
              <mxPoint x="70" y="390" />
              <mxPoint x="70" y="300" />
              <mxPoint x="275" y="300" />
            </Array>
          </mxGeometry>
        </mxCell>
        <mxCell id="SQC-Pw_386uw05JgiqiM-74" value="SCK" style="rounded=0;whiteSpace=wrap;html=1;rotation=-90;" vertex="1" parent="1">
          <mxGeometry x="-200" y="320" width="40" height="20" as="geometry" />
        </mxCell>
        <mxCell id="SQC-Pw_386uw05JgiqiM-79" style="edgeStyle=orthogonalEdgeStyle;rounded=0;orthogonalLoop=1;jettySize=auto;html=1;exitX=0;exitY=0.5;exitDx=0;exitDy=0;entryX=0.5;entryY=0;entryDx=0;entryDy=0;strokeColor=#009900;strokeWidth=2;" edge="1" parent="1" source="SQC-Pw_386uw05JgiqiM-75" target="SQC-Pw_386uw05JgiqiM-13">
          <mxGeometry relative="1" as="geometry">
            <Array as="points">
              <mxPoint x="-200" y="410" />
              <mxPoint x="95" y="410" />
              <mxPoint x="95" y="280" />
              <mxPoint x="395" y="280" />
            </Array>
          </mxGeometry>
        </mxCell>
        <mxCell id="SQC-Pw_386uw05JgiqiM-75" value="CE" style="rounded=0;whiteSpace=wrap;html=1;rotation=-90;" vertex="1" parent="1">
          <mxGeometry x="-220" y="320" width="40" height="20" as="geometry" />
        </mxCell>
        <mxCell id="SQC-Pw_386uw05JgiqiM-90" style="edgeStyle=orthogonalEdgeStyle;rounded=0;orthogonalLoop=1;jettySize=auto;html=1;exitX=0;exitY=0.5;exitDx=0;exitDy=0;entryX=0.5;entryY=1;entryDx=0;entryDy=0;" edge="1" parent="1" source="SQC-Pw_386uw05JgiqiM-84" target="SQC-Pw_386uw05JgiqiM-31">
          <mxGeometry relative="1" as="geometry">
            <Array as="points">
              <mxPoint x="830" y="730" />
              <mxPoint x="495" y="730" />
            </Array>
          </mxGeometry>
        </mxCell>
        <mxCell id="SQC-Pw_386uw05JgiqiM-84" value="GND" style="rounded=0;whiteSpace=wrap;html=1;rotation=-90;" vertex="1" parent="1">
          <mxGeometry x="810" y="520" width="40" height="20" as="geometry" />
        </mxCell>
        <mxCell id="SQC-Pw_386uw05JgiqiM-91" style="edgeStyle=orthogonalEdgeStyle;rounded=0;orthogonalLoop=1;jettySize=auto;html=1;exitX=0;exitY=0.5;exitDx=0;exitDy=0;entryX=0.5;entryY=1;entryDx=0;entryDy=0;strokeColor=#FF0000;strokeWidth=2;" edge="1" parent="1" source="SQC-Pw_386uw05JgiqiM-85" target="SQC-Pw_386uw05JgiqiM-32">
          <mxGeometry relative="1" as="geometry">
            <Array as="points">
              <mxPoint x="850" y="750" />
              <mxPoint x="465" y="750" />
            </Array>
          </mxGeometry>
        </mxCell>
        <mxCell id="SQC-Pw_386uw05JgiqiM-85" value="5V" style="rounded=0;whiteSpace=wrap;html=1;rotation=-90;" vertex="1" parent="1">
          <mxGeometry x="830" y="520" width="40" height="20" as="geometry" />
        </mxCell>
        <mxCell id="SQC-Pw_386uw05JgiqiM-92" style="edgeStyle=orthogonalEdgeStyle;rounded=0;orthogonalLoop=1;jettySize=auto;html=1;exitX=0;exitY=0.5;exitDx=0;exitDy=0;entryX=0.5;entryY=1;entryDx=0;entryDy=0;strokeColor=#CC6600;strokeWidth=2;" edge="1" parent="1" source="SQC-Pw_386uw05JgiqiM-86" target="SQC-Pw_386uw05JgiqiM-25">
          <mxGeometry relative="1" as="geometry">
            <Array as="points">
              <mxPoint x="870" y="710" />
              <mxPoint x="570" y="710" />
            </Array>
          </mxGeometry>
        </mxCell>
        <mxCell id="SQC-Pw_386uw05JgiqiM-86" value="VRX" style="rounded=0;whiteSpace=wrap;html=1;rotation=-90;" vertex="1" parent="1">
          <mxGeometry x="850" y="520" width="40" height="20" as="geometry" />
        </mxCell>
        <mxCell id="SQC-Pw_386uw05JgiqiM-93" style="edgeStyle=orthogonalEdgeStyle;rounded=0;orthogonalLoop=1;jettySize=auto;html=1;exitX=0;exitY=0.5;exitDx=0;exitDy=0;entryX=0.5;entryY=1;entryDx=0;entryDy=0;strokeColor=#CCCC00;strokeWidth=2;" edge="1" parent="1" source="SQC-Pw_386uw05JgiqiM-87" target="SQC-Pw_386uw05JgiqiM-26">
          <mxGeometry relative="1" as="geometry" />
        </mxCell>
        <mxCell id="SQC-Pw_386uw05JgiqiM-87" value="VRY" style="rounded=0;whiteSpace=wrap;html=1;rotation=-90;" vertex="1" parent="1">
          <mxGeometry x="870" y="520" width="40" height="20" as="geometry" />
        </mxCell>
        <mxCell id="SQC-Pw_386uw05JgiqiM-89" value="MS" style="rounded=0;whiteSpace=wrap;html=1;rotation=-90;" vertex="1" parent="1">
          <mxGeometry x="890" y="520" width="40" height="20" as="geometry" />
        </mxCell>
        <mxCell id="SQC-Pw_386uw05JgiqiM-94" value="" style="rounded=0;whiteSpace=wrap;html=1;" vertex="1" parent="1">
          <mxGeometry x="-120" y="470" width="120" height="60" as="geometry" />
        </mxCell>
        <mxCell id="SQC-Pw_386uw05JgiqiM-102" style="edgeStyle=orthogonalEdgeStyle;rounded=0;orthogonalLoop=1;jettySize=auto;html=1;exitX=0.5;exitY=1;exitDx=0;exitDy=0;entryX=0;entryY=0.25;entryDx=0;entryDy=0;strokeColor=#FF0000;strokeWidth=2;" edge="1" parent="1" source="SQC-Pw_386uw05JgiqiM-95" target="SQC-Pw_386uw05JgiqiM-4">
          <mxGeometry relative="1" as="geometry" />
        </mxCell>
        <mxCell id="SQC-Pw_386uw05JgiqiM-95" value="" style="rounded=0;whiteSpace=wrap;html=1;" vertex="1" parent="1">
          <mxGeometry x="-100" y="530" width="10" height="40" as="geometry" />
        </mxCell>
        <mxCell id="SQC-Pw_386uw05JgiqiM-103" style="edgeStyle=orthogonalEdgeStyle;rounded=0;orthogonalLoop=1;jettySize=auto;html=1;exitX=0.5;exitY=1;exitDx=0;exitDy=0;entryX=0.5;entryY=0;entryDx=0;entryDy=0;strokeColor=#994C00;strokeWidth=2;" edge="1" parent="1" source="SQC-Pw_386uw05JgiqiM-96" target="SQC-Pw_386uw05JgiqiM-104">
          <mxGeometry relative="1" as="geometry">
            <mxPoint x="-440" y="810" as="targetPoint" />
            <Array as="points">
              <mxPoint x="-60" y="690" />
              <mxPoint x="-60" y="690" />
            </Array>
          </mxGeometry>
        </mxCell>
        <mxCell id="SQC-Pw_386uw05JgiqiM-96" value="" style="rounded=0;whiteSpace=wrap;html=1;" vertex="1" parent="1">
          <mxGeometry x="-65" y="530" width="10" height="40" as="geometry" />
        </mxCell>
        <mxCell id="SQC-Pw_386uw05JgiqiM-98" style="edgeStyle=orthogonalEdgeStyle;rounded=0;orthogonalLoop=1;jettySize=auto;html=1;exitX=0.5;exitY=1;exitDx=0;exitDy=0;entryX=0.5;entryY=1;entryDx=0;entryDy=0;strokeWidth=2;" edge="1" parent="1" source="SQC-Pw_386uw05JgiqiM-97" target="SQC-Pw_386uw05JgiqiM-31">
          <mxGeometry relative="1" as="geometry">
            <Array as="points">
              <mxPoint x="-25" y="730" />
              <mxPoint x="495" y="730" />
            </Array>
          </mxGeometry>
        </mxCell>
        <mxCell id="SQC-Pw_386uw05JgiqiM-97" value="" style="rounded=0;whiteSpace=wrap;html=1;" vertex="1" parent="1">
          <mxGeometry x="-30" y="530" width="10" height="40" as="geometry" />
        </mxCell>
        <mxCell id="SQC-Pw_386uw05JgiqiM-99" value="" style="rounded=0;whiteSpace=wrap;html=1;" vertex="1" parent="1">
          <mxGeometry x="-120" y="790" width="120" height="150" as="geometry" />
        </mxCell>
        <mxCell id="SQC-Pw_386uw05JgiqiM-100" value="" style="rounded=0;whiteSpace=wrap;html=1;" vertex="1" parent="1">
          <mxGeometry x="-105" y="770" width="40" height="20" as="geometry" />
        </mxCell>
        <mxCell id="SQC-Pw_386uw05JgiqiM-101" value="" style="rounded=0;whiteSpace=wrap;html=1;" vertex="1" parent="1">
          <mxGeometry x="-45" y="780" width="30" height="10" as="geometry" />
        </mxCell>
        <mxCell id="SQC-Pw_386uw05JgiqiM-105" style="edgeStyle=orthogonalEdgeStyle;rounded=0;orthogonalLoop=1;jettySize=auto;html=1;exitX=1;exitY=0.5;exitDx=0;exitDy=0;entryX=0;entryY=0.75;entryDx=0;entryDy=0;strokeColor=#994C00;strokeWidth=2;" edge="1" parent="1" source="SQC-Pw_386uw05JgiqiM-104" target="SQC-Pw_386uw05JgiqiM-4">
          <mxGeometry relative="1" as="geometry" />
        </mxCell>
        <mxCell id="SQC-Pw_386uw05JgiqiM-104" value="" style="rounded=0;whiteSpace=wrap;html=1;" vertex="1" parent="1">
          <mxGeometry x="-120" y="760" width="120" height="20" as="geometry" />
        </mxCell>
        <mxCell id="SQC-Pw_386uw05JgiqiM-106" value="" style="shape=manualInput;whiteSpace=wrap;html=1;fillColor=#4D4D4D;" vertex="1" parent="1">
          <mxGeometry x="-100" y="440" width="80" height="50" as="geometry" />
        </mxCell>
      </root>
    </mxGraphModel>
  </diagram>
</mxfile>
